<?xml version="1.0" standalone="no"?>
<!DOCTYPE svg PUBLIC "-//W3C//DTD SVG 20010904//EN"
 "http://www.w3.org/TR/2001/REC-SVG-20010904/DTD/svg10.dtd">
<svg version="1.0" xmlns="http://www.w3.org/2000/svg"
 width="260.000000pt" height="260.000000pt" viewBox="0 0 260.000000 260.000000"
 preserveAspectRatio="xMidYMid meet">
<metadata>
Created by potrace 1.11, written by Peter Selinger 2001-2013
</metadata>
<g transform="translate(0.000000,260.000000) scale(0.100000,-0.100000)"
fill="#000000" stroke="none">
<path d="M1071 2564 c-235 -39 -471 -160 -654 -333 -199 -190 -336 -441 -382
-705 -19 -114 -19 -328 0 -442 43 -244 159 -473 333 -656 113 -118 221 -197
367 -268 194 -95 343 -130 560 -130 217 0 366 35 560 130 146 71 254 150 367
268 230 243 348 539 348 877 0 220 -42 393 -142 588 -66 129 -145 232 -256
338 -186 177 -419 294 -662 334 -116 18 -325 18 -439 -1z m64 -706 c16 -68
235 -1120 235 -1128 0 -6 -45 -10 -113 -10 l-113 0 -24 120 -23 120 -201 0
-201 0 -65 -120 -64 -120 -113 0 -113 0 48 88 c26 48 166 309 312 580 l265
492 82 0 c77 0 83 -1 88 -22z m885 -19 c199 -32 272 -152 226 -371 -31 -143
-109 -245 -224 -289 -42 -17 -88 -24 -177 -28 l-119 -6 -27 -165 c-14 -91 -29
-186 -33 -212 l-7 -48 -105 0 c-94 0 -104 2 -104 18 0 10 38 260 85 556 47
295 85 541 85 546 0 14 318 13 400 -1z"/>
<path d="M934 1454 c-115 -245 -142 -308 -138 -316 7 -12 252 -10 259 2 6 9
-61 400 -70 409 -3 2 -26 -40 -51 -95z"/>
<path d="M1806 1649 c-13 -61 -46 -280 -46 -304 l0 -28 69 7 c77 7 117 19 145
44 49 45 78 160 56 226 -15 48 -56 68 -147 74 -69 4 -72 4 -77 -19z"/>
</g>
</svg>
